<svg xmlns="http://www.w3.org/2000/svg" xmlns:xlink="http://www.w3.org/1999/xlink" viewBox="0 0 201 57">
  <defs>
    <style>
      .cls-1 {
        clip-path: url(#clip-Logo-blood);
      }

      .cls-2 {
        fill: #d81e05;
      }

      .cls-3 {
        fill: #fff;
      }
    </style>
    <clipPath id="clip-Logo-blood">
      <rect width="201" height="57"/>
    </clipPath>
  </defs>
  <g id="Logo-blood" class="cls-1">
    <rect class="cls-3" width="201" height="57"/>
    <g id="dept-icon-blood">
      <path id="Path_52" data-name="Path 52" class="cls-2" d="M23.086,26.577a14.4,14.4,0,0,1,1.371-6.1s-4.343-6.1-11.429-6.1S0,18.516,0,27.012C0,40.083,18.286,56.2,24.457,56.2c5.029,0,11.657-7.189,11.657-7.189S23.086,38.122,23.086,26.577M60.8,14.6c-6.4,0-11.2,4.357-12.8,6.1-2.286-4.792-6.857-6.1-10.286-6.1-4.8,0-12.343,2.4-12.343,10.456,0,11.981,13.486,21.566,13.486,21.566S49.371,37.469,49.371,27.23a15.241,15.241,0,0,0-.686-4.792A15.8,15.8,0,0,1,58.971,18.3c6.857,0,11.886,3.7,11.886,10.456,0,11.981-18.743,21.566-19.657,22.438s-3.657,1.307-5.714.218a78.217,78.217,0,0,1-6.857-4.792l-2.743,2.4s8.457,5.882,9.143,6.753c.686.654,3.429,1.307,5.714,0S72.914,42.7,72.914,27.448c0-7.189-3.886-12.853-12.114-12.853m-35.657.654c2.743,0,8.229-3.921,8.229-9.585,0-3.921-1.829-5.446-4.343-5.446-3.429,0-9.143,4.139-9.143,8.5s2.514,6.535,5.257,6.535m23.086-.218c3.886,0,8.686-5.01,8.686-8.714S55.543,2.178,54.4,2.178a2.237,2.237,0,0,0-2.286,2.178c0,1.525,1.371,9.8-3.886,9.8-1.143,0-2.286-1.307-2.286-3.268,0-6.317,7.086-8.931,7.086-10.238C52.8.218,52.571,0,52.114,0,46.857,0,43.2,6.317,43.2,8.931c0,2.832,1.143,6.1,5.029,6.1M193.6,30.715a2.859,2.859,0,0,1-2.057-.871,5.633,5.633,0,0,1-1.371-3.485,5.37,5.37,0,0,1,1.143-3.485A2.961,2.961,0,0,1,193.371,22c2.514,0,3.429,2.178,3.429,4.357.229,2.178-.914,4.357-3.2,4.357m6.4,1.743V14.6a.221.221,0,0,0-.229-.218h-2.286a.217.217,0,0,0-.229.218v6.753a5.821,5.821,0,0,0-4.114-1.525c-4.114,0-5.943,3.268-5.943,6.535s1.6,6.971,5.714,6.971a5.821,5.821,0,0,0,4.114-1.525v1.089a.221.221,0,0,0,.229.218h2.286c.457-.436.457-.436.457-.654M179.2,22c2.514,0,3.657,2.178,3.657,4.357s-1.143,4.357-3.657,4.357-3.657-2.178-3.657-4.357S176.686,22,179.2,22m0,11.11a6.628,6.628,0,0,0,6.857-6.753,6.858,6.858,0,0,0-13.714,0,6.628,6.628,0,0,0,6.857,6.753M164.343,22C166.857,22,168,24.18,168,26.359s-1.143,4.357-3.657,4.357-3.657-2.178-3.657-4.357S161.829,22,164.343,22m0,11.11a6.628,6.628,0,0,0,6.857-6.753,6.858,6.858,0,0,0-13.714,0,6.628,6.628,0,0,0,6.857,6.753m-11.429-.436H155.2a.217.217,0,0,0,.229-.218V14.6a.221.221,0,0,0-.229-.218h-2.286a.217.217,0,0,0-.229.218V32.676h.229M144,22a2.273,2.273,0,0,1,2.057.871,4.96,4.96,0,0,1,1.143,3.485,4.3,4.3,0,0,1-1.371,3.485,2.961,2.961,0,0,1-2.057.871c-2.286,0-3.429-2.178-3.429-4.357C140.343,24.4,141.486,22,144,22m-6.171,10.674h2.286a.217.217,0,0,0,.229-.218V31.369a5.821,5.821,0,0,0,4.114,1.525c4.343,0,5.714-3.7,5.714-6.971s-1.829-6.535-5.943-6.535a5.015,5.015,0,0,0-4.114,1.525V14.6a.221.221,0,0,0-.229-.218H137.6a.217.217,0,0,0-.229.218V32.676h.457m-16-7.842a3.331,3.331,0,0,1,3.2-2.832A2.957,2.957,0,0,1,128,24.834Zm3.2-5.228a6.21,6.21,0,0,0-6.4,6.535c0,4.357,2.514,6.971,6.857,6.971a13.811,13.811,0,0,0,3.886-.654.221.221,0,0,0,.229-.218.217.217,0,0,0,.229-.218V29.844a.217.217,0,0,0-.229-.218h-.229a7.13,7.13,0,0,1-3.657,1.089,3.877,3.877,0,0,1-3.886-3.485h8.914a.217.217,0,0,0,.229-.218c0-5.01-2.057-7.407-5.943-7.407m-15.314,13.07a.221.221,0,0,0,.229.218h2.743c.229,0,.229,0,.229-.218l4.571-12.2v-.218l-.229-.218h-2.286c-.229,0-.229,0-.229.218l-3.2,9.149-3.2-9.149a.221.221,0,0,0-.229-.218H105.6a.221.221,0,0,0-.229.218v.218Zm-9.371-14.813h2.743a.217.217,0,0,0,.229-.218V15.031a.221.221,0,0,0-.229-.218h-2.743a.217.217,0,0,0-.229.218v2.4c0,.218,0,.436.229.436m2.743,14.6v-12.2a.221.221,0,0,0-.229-.218h-2.286a.217.217,0,0,0-.229.218v12.2a.221.221,0,0,0,.229.218h2.286c.229,0,.229,0,.229-.218m-10.971.654a20.932,20.932,0,0,0,5.486-.654.217.217,0,0,0,.229-.218V23.527a.221.221,0,0,0-.229-.218H91.429a.217.217,0,0,0-.229.218v1.961a.221.221,0,0,0,.229.218h3.429V30.28a6.733,6.733,0,0,1-2.514.218,6.155,6.155,0,0,1-6.4-6.317,6.155,6.155,0,0,1,6.4-6.317c2.057,0,3.429.218,4.571,1.089h.229l.229-.218.229-2.4c0-.218,0-.218-.229-.218-1.371-.654-2.514-.871-5.257-.871-5.714,0-9.6,3.7-9.6,8.931s3.886,8.931,9.6,8.931" transform="translate(0 0)"/>
    </g>
  </g>
</svg>
